<svg width="279" height="120" viewBox="0 0 279 120" fill="none"
  xmlns="http://www.w3.org/2000/svg">
  <path d="M258.165 124.367C258.165 92.9452 245.683 62.8105 223.465 40.592C201.246 18.3735 171.111 5.89131 139.69 5.89131C108.268 5.89131 78.1333 18.3735 55.9148 40.592C33.6963 62.8105 21.2141 92.9452 21.2141 124.367L44.9092 124.367C44.9092 99.2295 54.895 75.1217 72.6698 57.347C90.4446 39.5722 114.552 29.5864 139.69 29.5864C164.827 29.5864 188.935 39.5722 206.71 57.347C224.484 75.1218 234.47 99.2295 234.47 124.367H258.165Z" fill="#FFBDFD"/>
  <path d="M20.9437 20.9437L70.4971 34.2215L34.2215 70.4971L20.9437 20.9437Z" fill="#FFBDFD"/>
  <path d="M258.056 20.9437L208.503 34.2215L244.778 70.4971L258.056 20.9437Z" fill="#FFBDFD"/>
</svg>
